<svg width="200" height="64" viewBox="0 0 200 64" fill="none" xmlns="http://www.w3.org/2000/svg">
<g id="cly&#62;&#62;&#62;">
<path id="Vector" d="M200 36.4042L165.697 51.5092V41.6422L189.183 32.2138L188.866 32.7254V31.5073L189.183 32.0189L165.697 22.5905V12.7235L200 27.8285V36.4042Z" fill="white"/>
<path id="Vector_2" d="M165.864 36.4042L131.561 51.5092V41.6422L155.047 32.2138L154.73 32.7254V31.5073L155.047 32.0189L131.561 22.5905V12.7235L165.864 27.8285V36.4042Z" fill="white"/>
<path id="Vector_3" d="M131.727 36.4042L97.4244 51.5092V41.6422L120.91 32.2138L120.593 32.7254V31.5073L120.91 32.0189L97.4244 22.5905V12.7235L131.727 27.8285V36.4042Z" fill="white"/>
<path id="Vector_4" d="M64.1318 63.9281C62.8162 63.9281 61.5818 63.8225 60.4287 63.6114C59.2917 63.4165 58.3497 63.1647 57.6026 62.8561L59.9414 55.1087C61.1596 55.4823 62.2559 55.6853 63.2304 55.7178C64.2211 55.7503 65.0738 55.5229 65.7885 55.0356C66.5194 54.5484 67.1122 53.7201 67.567 52.5506L68.1761 50.9671L54.7521 12.4738H65.6667L73.4141 39.955H73.8039L81.6243 12.4738H92.612L78.0674 53.9393C77.369 55.9533 76.4188 57.7074 75.2169 59.2017C74.0313 60.7122 72.5289 61.8735 70.7098 62.6856C68.8907 63.5139 66.698 63.9281 64.1318 63.9281Z" fill="white"/>
<path id="Vector_5" d="M50.7827 0V49.8951H40.4042V0H50.7827Z" fill="white"/>
<path id="Vector_6" d="M18.4183 50.626C14.5852 50.626 11.2881 49.8139 8.527 48.1897C5.78212 46.5493 3.67067 44.2754 2.19266 41.3681C0.730885 38.4608 0 35.115 0 31.3306C0 27.4975 0.739006 24.1354 2.21702 21.2444C3.71127 18.3371 5.83084 16.0713 8.57572 14.4471C11.3206 12.8067 14.5852 11.9865 18.3696 11.9865C21.6342 11.9865 24.4928 12.5793 26.9453 13.765C29.3978 14.9506 31.3387 16.6154 32.768 18.7594C34.1973 20.9033 34.985 23.4208 35.1312 26.3119H25.3374C25.0612 24.444 24.3304 22.9417 23.1447 21.8047C21.9753 20.6516 20.4404 20.075 18.5401 20.075C16.9322 20.075 15.5273 20.5135 14.3254 21.3906C13.1397 22.2514 12.2139 23.5101 11.548 25.1668C10.8821 26.8235 10.5491 28.8293 10.5491 31.1844C10.5491 33.572 10.874 35.6022 11.5236 37.2751C12.1895 38.948 13.1235 40.223 14.3254 41.1001C15.5273 41.9772 16.9322 42.4157 18.5401 42.4157C19.7258 42.4157 20.7896 42.1721 21.7317 41.6848C22.6899 41.1975 23.4777 40.491 24.0949 39.5652C24.7283 38.6232 25.1425 37.4944 25.3374 36.1788H35.1312C34.9688 39.0374 34.1892 41.5549 32.7924 43.7313C31.4118 45.8915 29.5034 47.5806 27.0671 48.7988C24.6308 50.0169 21.7479 50.626 18.4183 50.626Z" fill="white"/>
</g>
</svg>
